<?xml version="1.0" standalone="no"?><svg xmlns="http://www.w3.org/2000/svg" viewBox="0 0 1440 320"><path fill="#F5F5F5" fill-opacity="1" d="M0,192L30,181.3C60,171,120,149,180,165.3C240,181,300,235,360,261.3C420,288,480,288,540,288C600,288,660,288,720,277.3C780,267,840,245,900,213.3C960,181,1020,139,1080,112C1140,85,1200,75,1260,74.7C1320,75,1380,85,1410,90.7L1440,96L1440,320L1410,320C1380,320,1320,320,1260,320C1200,320,1140,320,1080,320C1020,320,960,320,900,320C840,320,780,320,720,320C660,320,600,320,540,320C480,320,420,320,360,320C300,320,240,320,180,320C120,320,60,320,30,320L0,320Z"></path></svg>